<?xml version="1.0" encoding="UTF-8"?>
<svg version="1.1" xmlns="http://www.w3.org/2000/svg" width="2000" height="1500">
<path d="M0 0 C660 0 1320 0 2000 0 C2000 495 2000 990 2000 1500 C1340 1500 680 1500 0 1500 C0 1005 0 510 0 0 Z " fill="#00023B" transform="translate(0,0)"/>
<path d="M0 0 C1.69593014 0.84254509 3.36573296 1.73849711 5.015625 2.66796875 C6.50243774 3.5021936 6.50243774 3.5021936 8.01928711 4.35327148 C9.08542236 4.95856689 10.15155762 5.5638623 11.25 6.1875 C12.36318604 6.815354 13.47637207 7.44320801 14.62329102 8.09008789 C24.10260671 13.45302396 33.51428458 18.9299443 42.91015625 24.4375 C49.21570419 28.1321331 55.54294436 31.78852681 61.875 35.4375 C62.95515381 36.06003662 64.03530762 36.68257324 65.14819336 37.32397461 C67.33796334 38.58576826 69.52782355 39.84740534 71.71777344 41.10888672 C77.14659942 44.23680148 82.57319281 47.36858448 88 50.5 C90.16665583 51.75001879 92.3333225 53.00001878 94.5 54.25 C98.83333333 56.75 103.16666667 59.25 107.5 61.75 C108.57266113 62.36883057 109.64532227 62.98766113 110.75048828 63.62524414 C112.91557071 64.87435518 115.08060982 66.12354129 117.24560547 67.37280273 C122.68615706 70.51202309 128.12747216 73.64990563 133.5703125 76.78515625 C144.02206199 82.80747329 154.46299548 88.84669337 164.875 94.9375 C173.55262241 100.01275123 182.26605568 105.02258767 191 110 C200.7137372 115.53578928 210.39387255 121.12569093 220.04492188 126.77026367 C227.51745914 131.13940792 235.0037635 135.48414054 242.5 139.8125 C243.51336426 140.39845947 244.52672852 140.98441895 245.57080078 141.58813477 C254.01216865 146.45784004 262.50461209 151.2213443 271 156 C271 260.61 271 365.22 271 473 C212.5 506.75 212.5 506.75 209.24951172 508.62524414 C207.08442929 509.87435518 204.91939018 511.12354129 202.75439453 512.37280273 C197.31384294 515.51202309 191.87252784 518.64990563 186.4296875 521.78515625 C175.97793801 527.80747329 165.53700452 533.84669337 155.125 539.9375 C145.85500223 545.35921178 136.54168248 550.70204915 127.21154785 556.01922607 C118.0871716 561.22045129 108.99867226 566.48027878 99.93310547 571.78344727 C89.40915375 577.93766742 78.84619863 584.02369996 68.28222656 590.10888672 C62.85340056 593.23680149 57.42682059 596.36860767 52 599.5 C49.84896371 600.74089474 47.69792203 601.98178014 45.546875 603.22265625 C39.90897657 606.47522468 34.27184366 609.7291166 28.63549805 612.984375 C26.40893357 614.26890055 24.18126145 615.55150838 21.95239258 616.83203125 C17.42258515 619.43545715 12.90037967 622.04348281 8.43359375 624.75390625 C7.4595459 625.33700562 7.4595459 625.33700562 6.46582031 625.93188477 C4.84981761 626.90250693 3.24273767 627.88794612 1.63671875 628.875 C-1.57170418 630.24392712 -2.68422218 629.93165092 -6 629 C-8.54174805 627.74755859 -8.54174805 627.74755859 -11.26171875 626.1484375 C-12.28458984 625.55224609 -13.30746094 624.95605469 -14.36132812 624.34179688 C-15.45896484 623.69275391 -16.55660156 623.04371094 -17.6875 622.375 C-18.84916922 621.69521082 -20.01128693 621.01618752 -21.17382812 620.33789062 C-23.58817446 618.92841697 -26.00055922 617.51567013 -28.41162109 616.10058594 C-33.92318625 612.86944454 -39.46302109 609.68731817 -45 606.5 C-47.1641845 605.25151354 -49.32824659 604.00281486 -51.4921875 602.75390625 C-55.85065388 600.23930564 -60.21012191 597.72645339 -64.5703125 595.21484375 C-75.02206199 589.19252671 -85.46299548 583.15330663 -95.875 577.0625 C-104.55262241 571.98724877 -113.26605568 566.97741233 -122 562 C-131.72115617 556.4599827 -141.40894658 550.86625191 -151.06689453 545.21655273 C-161.59084625 539.06233258 -172.15380137 532.97630004 -182.71777344 526.89111328 C-188.14659942 523.76319852 -193.57319281 520.63141552 -199 517.5 C-201.16665583 516.24998121 -203.3333225 514.99998122 -205.5 513.75 C-209.83333333 511.25 -214.16666667 508.75 -218.5 506.25 C-219.57362793 505.63060547 -220.64725586 505.01121094 -221.75341797 504.37304688 C-223.90871311 503.1295949 -226.06398673 501.88610564 -228.21923828 500.64257812 C-233.22337674 497.75537125 -238.2277052 494.8684957 -243.23284912 491.98303223 C-244.98341241 490.97380896 -246.73390411 489.96446164 -248.484375 488.95507812 C-250.66392165 487.6983234 -252.84359832 486.44179414 -255.0234375 485.18554688 C-256.96413663 484.06639371 -258.8984268 482.93600597 -260.82420993 481.79137665 C-263.94735753 479.96548325 -263.94735753 479.96548325 -267.15486455 478.58574003 C-275.32279369 474.67798593 -275.32279369 474.67798593 -277.09779501 470.27987683 C-277.51886517 466.84274155 -277.54280733 463.58548709 -277.4430542 460.12367249 C-277.4533073 458.82320541 -277.4635604 457.52273834 -277.47412419 456.18286318 C-277.50090385 452.58276354 -277.4530613 448.9869643 -277.39278746 445.38741291 C-277.34088903 441.50270515 -277.35850734 437.61823334 -277.36761475 433.73327637 C-277.37390259 427.00586163 -277.33630509 420.27984506 -277.26876068 413.55278206 C-277.17116941 403.82687307 -277.13997722 394.10163908 -277.12490478 384.37529355 C-277.09865106 368.59478325 -277.01882017 352.81501796 -276.90527344 337.03491211 C-276.7950987 321.70747603 -276.71017116 306.38024242 -276.65917969 291.05249023 C-276.65602701 290.1074517 -276.65287432 289.16241317 -276.64962611 288.1887371 C-276.63396548 283.44768223 -276.61880103 278.70662592 -276.60388327 273.96556866 C-276.47951341 234.64319084 -276.26818376 195.32164462 -276 156 C-275.22693008 155.57178955 -274.45386017 155.1435791 -273.65736389 154.70239258 C-270.74938126 153.091025 -267.84188847 151.47878019 -264.93470764 149.8659668 C-263.68386086 149.17226324 -262.43282796 148.47889516 -261.18159485 147.78588867 C-252.87188417 143.18311444 -244.62608373 138.49186813 -236.4609375 133.63671875 C-230.85754155 130.31124198 -225.20842533 127.06505747 -219.5625 123.8125 C-218.45511475 123.17441406 -217.34772949 122.53632813 -216.20678711 121.87890625 C-213.93630921 120.57093309 -211.665719 119.26315487 -209.39501953 117.95556641 C-203.9283002 114.80667946 -198.46425113 111.65316736 -193 108.5 C-190.83334689 107.2499765 -188.66668021 105.99997653 -186.5 104.75 C-185.4275 104.13125 -184.355 103.5125 -183.25 102.875 C-173.5 97.25 -173.5 97.25 -170.24951172 95.37475586 C-168.08442929 94.12564482 -165.91939018 92.87645871 -163.75439453 91.62719727 C-158.31384294 88.48797691 -152.87252784 85.35009437 -147.4296875 82.21484375 C-136.97793801 76.19252671 -126.53700452 70.15330663 -116.125 64.0625 C-106.85500223 58.64078822 -97.54168248 53.29795085 -88.21154785 47.98077393 C-79.09001709 42.78117074 -70.00363569 37.52418533 -60.94189453 32.22094727 C-52.52397974 27.29664176 -44.07849942 22.42112571 -35.61816406 17.57006836 C-30.24468225 14.48133248 -24.90329493 11.35239138 -19.609375 8.12890625 C-18.6002002 7.51797119 -17.59102539 6.90703613 -16.55126953 6.27758789 C-14.64470903 5.11943112 -12.74427171 3.95111451 -10.85107422 2.77124023 C-9.58287842 2.00275757 -9.58287842 2.00275757 -8.2890625 1.21875 C-7.55381348 0.76435547 -6.81856445 0.30996094 -6.06103516 -0.15820312 C-3.48275065 -1.21126223 -2.56968629 -1.01186382 0 0 Z " fill="#EA5F2A" transform="translate(1003,261)"/>
<path d="M0 0 C1.45237061 0.96595093 1.45237061 0.96595093 2.93408203 1.95141602 C4.76484573 3.00085837 6.60072402 4.04143455 8.44189453 5.07250977 C10.31639529 6.17440551 12.1887176 7.28001376 14.05908203 8.38891602 C16.16810489 9.62909838 18.27749264 10.86866039 20.38720703 12.10766602 C22.0046582 13.05899414 22.0046582 13.05899414 23.65478516 14.02954102 C29.02402936 17.17625709 34.41616394 20.28300221 39.80908203 23.38891602 C41.4277417 24.32175415 41.4277417 24.32175415 43.07910156 25.2734375 C45.26991154 26.53591333 47.46082963 27.79820157 49.65185547 29.06030273 C55.08068145 32.1882175 60.50727484 35.32000049 65.93408203 38.45141602 C68.10073786 39.70143481 70.26740453 40.9514348 72.43408203 42.20141602 C76.76741536 44.70141602 81.1007487 47.20141602 85.43408203 49.70141602 C86.507146 50.32048828 87.58020996 50.93956055 88.68579102 51.57739258 C90.84677191 52.82411857 93.00774201 54.07086329 95.16870117 55.31762695 C100.67227054 58.49287485 106.17604236 61.66777097 111.68017578 64.84204102 C117.09220158 67.96329133 122.50364071 71.08555613 127.91455078 74.20874023 C129.89875498 75.35389301 131.88312499 76.49875853 133.86767578 77.64331055 C136.53621268 79.18253077 139.20400686 80.72302981 141.87158203 82.26391602 C142.65267334 82.71412109 143.43376465 83.16432617 144.23852539 83.62817383 C144.95145752 84.04035156 145.66438965 84.4525293 146.39892578 84.87719727 C147.01372803 85.23209229 147.62853027 85.5869873 148.26196289 85.95263672 C149.85069066 86.90160523 151.39431745 87.9249063 152.93408203 88.95141602 C153.2164583 91.45572019 153.30118737 93.71044618 153.25688171 96.21524048 C153.25536144 96.97240651 153.25384116 97.72957255 153.25227481 98.50968301 C153.24346765 101.0603769 153.21306668 103.61036489 153.18286133 106.16088867 C153.17215889 107.98381347 153.16278048 109.80674645 153.15463257 111.62968445 C153.12868491 116.59031397 153.08412658 121.55062528 153.03633475 126.51108599 C152.98956064 131.69070172 152.95975182 136.87041371 152.92817688 142.05014038 C152.86575804 151.86395178 152.78798574 161.67757963 152.70475656 171.49123418 C152.61076528 182.66148567 152.53379969 193.83183389 152.45829523 205.00222325 C152.30256072 227.98544605 152.12534428 250.96846337 151.93408203 273.95141602 C150.04788935 273.0183341 148.16286569 272.08288887 146.27832031 271.14648438 C145.22846954 270.62581894 144.17861877 270.1051535 143.09695435 269.56871033 C138.21998454 267.07493418 133.51930287 264.30651322 128.80908203 261.51391602 C126.70005917 260.27373365 124.59067142 259.03417164 122.48095703 257.79516602 C120.86350586 256.84383789 120.86350586 256.84383789 119.21337891 255.87329102 C113.8441347 252.72657494 108.45200012 249.61982982 103.05908203 246.51391602 C101.44042236 245.58107788 101.44042236 245.58107788 99.7890625 244.62939453 C97.59825252 243.3669187 95.40733443 242.10463046 93.21630859 240.8425293 C87.78748261 237.71461453 82.36088922 234.58283154 76.93408203 231.45141602 C74.7674262 230.20139723 72.60075953 228.95139723 70.43408203 227.70141602 C66.1007487 225.20141602 61.76741536 222.70141602 57.43408203 220.20141602 C56.36101807 219.58234375 55.2879541 218.96327148 54.18237305 218.32543945 C52.02139215 217.07871346 49.86042205 215.83196875 47.69946289 214.58520508 C42.19589352 211.40995718 36.69212171 208.23506106 31.18798828 205.06079102 C30.07770264 204.42012695 28.96741699 203.77946289 27.82348633 203.11938477 C25.62941257 201.85449569 23.43428485 200.59143283 21.23803711 199.33032227 C16.21454785 196.4423836 11.21162383 193.53001513 6.25439453 190.52954102 C5.38226318 190.00714844 4.51013184 189.48475586 3.61157227 188.9465332 C2.00216583 187.98016346 0.39953736 187.0023738 -1.19458008 186.01098633 C-1.90106689 185.58914063 -2.60755371 185.16729492 -3.33544922 184.73266602 C-3.93977783 184.36206055 -4.54410645 183.99145508 -5.16674805 183.60961914 C-7.82425009 182.68859774 -9.39210147 183.14367943 -12.06591797 183.95141602 C-14.47742144 185.09890483 -14.47742144 185.09890483 -16.89013672 186.58422852 C-17.8226123 187.13522217 -18.75508789 187.68621582 -19.71582031 188.25390625 C-20.71822754 188.85533447 -21.72063477 189.4567627 -22.75341797 190.07641602 C-24.92617778 191.36227761 -27.09936954 192.64740954 -29.27294922 193.93188477 C-30.39523926 194.59752441 -31.5175293 195.26316406 -32.67382812 195.94897461 C-38.07285945 199.13616728 -43.50644637 202.26266277 -48.94091797 205.38891602 C-51.12586164 206.64794758 -53.31075722 207.90706262 -55.49560547 209.16625977 C-56.58067383 209.79129395 -57.66574219 210.41632813 -58.78369141 211.06030273 C-64.21251739 214.1882175 -69.63911078 217.32000049 -75.06591797 220.45141602 C-77.2325738 221.70143481 -79.39924047 222.9514348 -81.56591797 224.20141602 C-82.63841797 224.82016602 -83.71091797 225.43891602 -84.81591797 226.07641602 C-96.73258464 232.95141602 -108.6492513 239.82641602 -120.56591797 246.70141602 C-121.64035156 247.32129395 -122.71478516 247.94117188 -123.82177734 248.57983398 C-125.96886933 249.81851604 -128.11600411 251.05712392 -130.26318359 252.2956543 C-135.36180606 255.23674951 -140.45997093 258.17863015 -145.55664062 261.12310791 C-147.97639462 262.52100202 -150.3963906 263.91847691 -152.81640625 265.31591797 C-154.53392849 266.30793926 -156.25109848 267.30057031 -157.96826172 268.29321289 C-159.00080078 268.8894043 -160.03333984 269.4855957 -161.09716797 270.09985352 C-162.46711914 270.89141846 -162.46711914 270.89141846 -163.86474609 271.69897461 C-165.24580488 272.48478113 -166.64470292 273.24080849 -168.06591797 273.95141602 C-161.43314663 278.55362022 -154.57328208 282.56251806 -147.50341797 286.45141602 C-138.99155879 291.17547585 -130.52715685 295.96643241 -122.12841797 300.88891602 C-113.83204501 305.75066278 -105.5224866 310.58768364 -97.19091797 315.38891602 C-96.11076416 316.01145264 -95.03061035 316.63398926 -93.91772461 317.27539062 C-91.72795463 318.53718428 -89.53809442 319.79882135 -87.34814453 321.06030273 C-80.8372054 324.81169626 -74.32928603 328.56832596 -67.82080078 332.32397461 C-62.38006461 335.46323847 -56.9386032 338.60123098 -51.49560547 341.73657227 C-50.39732422 342.36950195 -49.29904297 343.00243164 -48.16748047 343.65454102 C-46.14433887 344.82041923 -44.12094115 345.98585322 -42.09716797 347.15063477 C-40.11829369 348.29127275 -38.1564605 349.46189092 -36.21102905 350.65867615 C-32.98061424 352.55327152 -29.6699734 353.95753581 -26.20327759 355.36854553 C-10.08623693 362.47527859 -10.08623693 362.47527859 -6.7168541 369.94034767 C-4.82045098 378.06686493 -5.22533892 386.34906777 -5.63246346 394.62171316 C-5.78397399 398.22668914 -5.79669978 401.83230416 -5.82507324 405.43997192 C-5.89927257 412.2509607 -6.09555215 419.05254837 -6.33746099 425.85941994 C-6.60706434 433.61642126 -6.73799145 441.37390736 -6.85815144 449.13443732 C-7.1080906 465.07885061 -7.52932307 481.0139154 -8.06591797 496.95141602 C-12.89582901 495.41997049 -17.00388211 493.39130818 -21.31591797 490.76391602 C-22.83210712 489.85643197 -24.34908685 488.95026796 -25.86669922 488.04516602 C-26.69508301 487.55016602 -27.5234668 487.05516602 -28.37695312 486.54516602 C-33.39259662 483.57239311 -38.45010024 480.67202129 -43.50341797 477.76391602 C-45.16195801 476.80835815 -45.16195801 476.80835815 -46.85400391 475.83349609 C-49.12615878 474.52440945 -51.39845805 473.21557339 -53.67089844 471.90698242 C-59.13761777 468.75809548 -64.60166684 465.60458338 -70.06591797 462.45141602 C-72.23257108 461.20139252 -74.39923776 459.95139255 -76.56591797 458.70141602 C-89.56591797 451.20141602 -102.56591797 443.70141602 -115.56591797 436.20141602 C-116.6385791 435.58258545 -117.71124023 434.96375488 -118.81640625 434.32617188 C-120.98148868 433.07706083 -123.14652779 431.82787472 -125.31152344 430.57861328 C-130.75207503 427.43939292 -136.19339013 424.30151039 -141.63623047 421.16625977 C-152.08797996 415.14394273 -162.52891345 409.10472264 -172.94091797 403.01391602 C-181.61854038 397.93866478 -190.33197365 392.92882835 -199.06591797 387.95141602 C-208.78194151 382.41432377 -218.46488004 376.82398768 -228.11743164 371.17675781 C-236.51696378 366.26440362 -244.94117758 361.39567073 -253.37304688 356.5390625 C-255.3626697 355.39302547 -257.33613746 354.218456 -259.29191875 353.01557636 C-262.05100486 351.40228772 -264.7887168 350.29615001 -267.80055714 349.234828 C-273.35202277 347.05063256 -278.23510484 344.64375235 -282.06591797 339.95141602 C-285.43245522 331.16543251 -284.51836061 321.14622595 -284.27116477 311.87456644 C-284.18868455 307.99267612 -284.21690822 304.1113415 -284.23130798 300.2288208 C-284.2412457 293.51150431 -284.1819239 286.79770843 -284.07478905 280.08127785 C-283.92000389 270.37123471 -283.87085692 260.66288432 -283.84701721 250.9517413 C-283.80548853 235.19505367 -283.6792031 219.44024069 -283.49926758 203.68457031 C-283.32471788 188.38453518 -283.1903033 173.0850102 -283.10961914 157.78417969 C-283.10462739 156.84019205 -283.09963565 155.89620441 -283.09449264 154.92361108 C-283.06969593 150.18764067 -283.04568572 145.45166667 -283.02206647 140.71569026 C-282.82527212 101.45961992 -282.49078011 62.20564197 -282.06591797 22.95141602 C-279.86044193 24.21097365 -277.65505101 25.47067993 -275.44970703 26.73046875 C-274.83342438 27.08241051 -274.21714172 27.43435226 -273.58218384 27.79695892 C-267.6503547 31.18575614 -261.73171944 34.59722362 -255.81591797 38.01391602 C-254.11975667 38.99300099 -252.42359508 39.97208547 -250.72741699 40.95114136 C-248.98798488 41.95521148 -247.2486258 42.95940801 -245.50927734 43.96362305 C-240.02883259 47.12739086 -234.54733434 50.289332 -229.06591797 53.45141602 C-226.9083632 54.69620303 -224.75081113 55.94099471 -222.59326172 57.18579102 C-218.16901028 59.73826936 -213.74450129 62.29030057 -209.31982422 64.84204102 C-208.20961914 65.48270508 -207.09941406 66.12336914 -205.95556641 66.78344727 C-203.76084135 68.04861897 -201.5649023 69.31168736 -199.36767578 70.57250977 C-194.35226915 73.45425643 -189.36084876 76.36293758 -184.42138672 79.37329102 C-183.55376709 79.89568359 -182.68614746 80.41807617 -181.79223633 80.95629883 C-180.19468797 81.92084444 -178.60493533 82.8984796 -177.02514648 83.8918457 C-176.32188232 84.31369141 -175.61861816 84.73553711 -174.89404297 85.17016602 C-174.29495117 85.54077148 -173.69585938 85.91137695 -173.07861328 86.29321289 C-169.23046254 87.55165714 -165.96187635 86.37402235 -162.41064453 84.69897461 C-161.51829102 84.17126465 -160.6259375 83.64355469 -159.70654297 83.09985352 C-158.68689453 82.50366211 -157.66724609 81.9074707 -156.61669922 81.29321289 C-155.52744141 80.64416992 -154.43818359 79.99512695 -153.31591797 79.32641602 C-152.15894445 78.64639423 -151.00138084 77.96737555 -149.84326172 77.28930664 C-147.43926649 75.88074277 -145.03786024 74.46790961 -142.63818359 73.05200195 C-137.13756917 69.81124624 -131.59988388 66.63475279 -126.06591797 63.45141602 C-123.89907763 62.2017171 -121.73241147 60.95171612 -119.56591797 59.70141602 C-97.8992513 47.20141602 -76.23258464 34.70141602 -54.56591797 22.20141602 C-53.49229004 21.58097412 -52.41866211 20.96053223 -51.3125 20.32128906 C-49.16085981 19.08204916 -47.00561069 17.84905277 -44.84667969 16.62255859 C-39.76462953 13.72539771 -34.74178672 10.78039122 -29.83306885 7.59921265 C-27.52545249 6.1090889 -25.19632304 4.65465467 -22.86474609 3.20239258 C-21.23521497 2.16706038 -19.63811197 1.08123551 -18.04248047 -0.00561523 C-10.77641501 -4.50008871 -7.28873696 -4.45962633 0 0 Z " fill="#4CA949" transform="translate(1009.06591796875,394.048583984375)"/>
<path d="M0 0 C1.69593014 0.84254509 3.36573296 1.73849711 5.015625 2.66796875 C6.50243774 3.5021936 6.50243774 3.5021936 8.01928711 4.35327148 C9.08542236 4.95856689 10.15155762 5.5638623 11.25 6.1875 C12.36318604 6.815354 13.47637207 7.44320801 14.62329102 8.09008789 C24.10260671 13.45302396 33.51428458 18.9299443 42.91015625 24.4375 C49.21570419 28.1321331 55.54294436 31.78852681 61.875 35.4375 C62.95515381 36.06003662 64.03530762 36.68257324 65.14819336 37.32397461 C67.33796334 38.58576826 69.52782355 39.84740534 71.71777344 41.10888672 C77.14659942 44.23680148 82.57319281 47.36858448 88 50.5 C90.16665583 51.75001879 92.3333225 53.00001878 94.5 54.25 C98.83333333 56.75 103.16666667 59.25 107.5 61.75 C108.57266113 62.36883057 109.64532227 62.98766113 110.75048828 63.62524414 C112.91557071 64.87435518 115.08060982 66.12354129 117.24560547 67.37280273 C122.68615706 70.51202309 128.12747216 73.64990563 133.5703125 76.78515625 C144.02206199 82.80747329 154.46299548 88.84669337 164.875 94.9375 C173.55262241 100.01275123 182.26605568 105.02258767 191 110 C200.71317686 115.53546994 210.39407036 121.122842 220.04272461 126.77026367 C227.53040601 131.15081622 235.04304381 135.48675642 242.5625 139.8125 C251.76854012 145.1110089 260.92759944 150.47571649 270 156 C267.07370751 159.17440814 264.15654511 161.2534503 260.3984375 163.36328125 C259.28194824 163.99500244 258.16545898 164.62672363 257.01513672 165.27758789 C255.80176234 165.95590002 254.58838331 166.63420384 253.375 167.3125 C252.11301227 168.02454459 250.85146267 168.73736621 249.59033203 169.45092773 C247.64596335 170.55093263 245.70133341 171.65044428 243.75534058 172.74757385 C237.43720944 176.30991389 231.15340573 179.93064676 224.875 183.5625 C222.72659533 184.80344225 220.5781578 186.04432762 218.4296875 187.28515625 C217.36975586 187.89762207 216.30982422 188.51008789 215.21777344 189.14111328 C211.98175371 191.01054076 208.74494423 192.87859255 205.5078125 194.74609375 C204.43257324 195.36669678 203.35733398 195.9872998 202.24951172 196.62670898 C200.09870864 197.86661222 197.94670598 199.10443711 195.79345703 200.34008789 C190.7086798 203.2616148 185.63944058 206.20354268 180.61242676 209.2232666 C178.23637058 210.64877251 175.85313376 212.06201836 173.46923828 213.47436523 C171.78875017 214.47688307 170.11882645 215.49704276 168.44921875 216.51757812 C167.42957031 217.12021484 166.40992188 217.72285156 165.359375 218.34375 C164.46702148 218.88193359 163.57466797 219.42011719 162.65527344 219.97460938 C159.26497747 221.28384467 157.47699506 220.97847078 154 220 C151.34472656 218.74755859 151.34472656 218.74755859 148.640625 217.1484375 C147.62081543 216.55216553 146.60100586 215.95589355 145.55029297 215.34155273 C143.91664795 214.36810913 143.91664795 214.36810913 142.25 213.375 C141.09448721 212.69571783 139.93838863 212.01743127 138.78173828 211.34008789 C136.37925109 209.93218406 133.97933759 208.52003309 131.58105469 207.10498047 C126.03727844 203.83942995 120.4534459 200.64331438 114.875 197.4375 C106.60850377 192.67378784 98.36026922 187.87996164 90.125 183.0625 C81.44737759 177.98724877 72.73394432 172.97741233 64 168 C55.26605259 163.02258591 46.55279629 158.01245801 37.875 152.9375 C29.73754259 148.18062947 21.59813556 143.42733403 13.44122314 138.70388794 C11.72190119 137.70743756 10.0042433 136.70811769 8.28662109 135.70874023 C7.24715332 135.10747314 6.20768555 134.50620605 5.13671875 133.88671875 C4.21592529 133.35264404 3.29513184 132.81856934 2.34643555 132.26831055 C-0.0419151 130.88996345 -0.0419151 130.88996345 -3 130 C-5.63432567 131.1238184 -5.63432567 131.1238184 -8.50390625 132.875 C-9.62361816 133.52283447 -10.74333008 134.17066895 -11.89697266 134.83813477 C-13.11890068 135.55861139 -14.3407408 136.27923712 -15.5625 137 C-16.8280395 137.73658242 -18.09416126 138.47216527 -19.36083984 139.20678711 C-21.9712403 140.72249752 -24.5784174 142.24353766 -27.18310547 143.76904297 C-31.75608734 146.44552775 -36.34830839 149.08826268 -40.94116211 151.73046875 C-44.15289874 153.57855338 -47.3619926 155.4311472 -50.5703125 157.28515625 C-57.04510022 161.02651656 -63.52236343 164.76357483 -70 168.5 C-72.1666775 169.74998122 -74.33334417 170.99998121 -76.5 172.25 C-89.5 179.75 -102.5 187.25 -115.5 194.75 C-116.57411133 195.37003906 -117.64822266 195.99007812 -118.75488281 196.62890625 C-120.90401574 197.86806926 -123.0543918 199.10507894 -125.20605469 200.33984375 C-130.29101476 203.26141814 -135.36040345 206.20344899 -140.38757324 209.2232666 C-142.76362942 210.64877251 -145.14686624 212.06201836 -147.53076172 213.47436523 C-149.21124983 214.47688307 -150.88117355 215.49704276 -152.55078125 216.51757812 C-153.57042969 217.12021484 -154.59007812 217.72285156 -155.640625 218.34375 C-156.97915527 219.15102539 -156.97915527 219.15102539 -158.34472656 219.97460938 C-161.72244744 221.27898853 -163.536819 220.96648899 -167 220 C-169.43994141 218.85522461 -169.43994141 218.85522461 -171.8515625 217.40234375 C-172.77066406 216.85642578 -173.68976563 216.31050781 -174.63671875 215.74804688 C-176.11591797 214.85182617 -176.11591797 214.85182617 -177.625 213.9375 C-179.78304329 212.65358399 -181.94193216 211.37108843 -184.1015625 210.08984375 C-185.22981445 209.41808105 -186.35806641 208.74631836 -187.52050781 208.05419922 C-192.72010926 204.97263578 -197.97693773 201.99129461 -203.23168945 199.00512695 C-213.53394506 193.14921279 -223.79657969 187.22836109 -234.02294922 181.24072266 C-239.3582554 178.11855404 -244.7027664 175.01357876 -250.0625 171.93359375 C-250.94915848 171.42375191 -250.94915848 171.42375191 -251.85372925 170.90361023 C-254.71754591 169.25721416 -257.58262458 167.61312099 -260.44970703 165.97241211 C-265.4094171 163.12315917 -270.30296202 160.26679804 -275 157 C-272.4916488 154.18215963 -269.70077062 152.54276277 -266.42578125 150.69921875 C-264.73074463 149.7390686 -264.73074463 149.7390686 -263.00146484 148.75952148 C-262.10050079 148.25350906 -262.10050079 148.25350906 -261.18133545 147.73727417 C-257.98901802 145.94406526 -254.80583354 144.13474566 -251.62109375 142.328125 C-250.97456848 141.96198593 -250.32804321 141.59584686 -249.66192627 141.21861267 C-243.70368197 137.84142746 -237.7843799 134.39944033 -231.875 130.9375 C-220.3717498 124.20710887 -208.83075996 117.54343895 -197.28222656 110.89111328 C-191.85340058 107.76319852 -186.42680719 104.63141552 -181 101.5 C-178.83334417 100.24998121 -176.6666775 98.99998122 -174.5 97.75 C-173.4275 97.13125 -172.355 96.5125 -171.25 95.875 C-57.5 30.25 -57.5 30.25 -54.24560547 28.37255859 C-52.0934787 27.13088473 -49.94145927 25.88902478 -47.78955078 24.64697266 C-42.74969023 21.73833177 -37.70882508 18.83148102 -32.66400146 15.93145752 C-30.88250422 14.90724335 -29.10135678 13.88242349 -27.3203125 12.85742188 C-25.08923375 11.57366625 -22.85750427 10.29104061 -20.625 9.00976562 C-19.10519531 8.13481445 -19.10519531 8.13481445 -17.5546875 7.2421875 C-16.12334473 6.41992676 -16.12334473 6.41992676 -14.66308594 5.58105469 C-11.59659551 3.7605017 -8.64115614 1.80378873 -5.72314453 -0.24560547 C-3.37094453 -1.27540116 -2.38438368 -0.90199639 0 0 Z " fill="#F8F6CF" transform="translate(1003,261)"/>
<path d="M0 0 C2.54174805 1.25244141 2.54174805 1.25244141 5.26171875 2.8515625 C6.28458984 3.44775391 7.30746094 4.04394531 8.36132812 4.65820312 C9.45896484 5.30724609 10.55660156 5.95628906 11.6875 6.625 C12.84916922 7.30478918 14.01128693 7.98381248 15.17382812 8.66210938 C17.58817446 10.07158303 20.00055922 11.48432987 22.41162109 12.89941406 C27.92318583 16.13055521 33.4629938 19.31272995 39 22.5 C41.16679965 23.74976947 43.3334659 24.99977024 45.5 26.25 C46.5725 26.86875 47.645 27.4875 48.75 28.125 C52 30 55.25 31.875 58.5 33.75 C59.57266113 34.36883057 60.64532227 34.98766113 61.75048828 35.62524414 C63.91557071 36.87435518 66.08060982 38.12354129 68.24560547 39.37280273 C73.68615706 42.51202309 79.12747216 45.64990563 84.5703125 48.78515625 C95.99131035 55.36595595 107.39759353 61.97000717 118.77026367 68.6340332 C124.38792875 71.91818513 130.02773001 75.15939626 135.69140625 78.36328125 C136.33766968 78.72957138 136.98393311 79.09586151 137.64978027 79.47325134 C140.82199523 81.2711631 143.996924 83.0638794 147.17724609 84.84741211 C148.31371582 85.49073486 149.45018555 86.13405762 150.62109375 86.796875 C151.6361499 87.36760742 152.65120605 87.93833984 153.69702148 88.52636719 C156 90 156 90 157 92 C154.35921766 93.52352827 151.71843269 95.047052 149.07763672 96.57055664 C146.74328358 97.91732423 144.40896765 99.26415607 142.07470703 100.61108398 C136.16021511 104.02377298 130.24511559 107.43539406 124.328125 110.84375 C113.91019664 116.84647607 103.50326743 122.86642887 93.125 128.9375 C83.85500223 134.35921178 74.54168248 139.70204915 65.21154785 145.01922607 C56.10256787 150.21167486 47.02867292 155.46140029 37.97924805 160.75708008 C29.16212734 165.91462642 20.31571537 171.02040396 11.46240234 176.11547852 C10.42937988 176.71030029 9.39635742 177.30512207 8.33203125 177.91796875 C7.42171143 178.44156982 6.5113916 178.9651709 5.57348633 179.50463867 C3.81664006 180.52547952 2.09743041 181.61322869 0.41674805 182.75512695 C-2 184 -2 184 -4.09472656 183.79956055 C-7.44954675 182.39168816 -10.58890945 180.60186209 -13.75 178.8125 C-14.53584473 178.37180176 -15.32168945 177.93110352 -16.13134766 177.47705078 C-23.60478958 173.26553792 -31.00816444 168.9340331 -38.40917969 164.59692383 C-46.24228207 160.01042009 -54.11298111 155.49278881 -62 151 C-71.72143706 145.46048161 -81.40895317 139.86624806 -91.06689453 134.21655273 C-101.57045435 128.07425741 -112.11279074 121.99974138 -122.65625 115.92626953 C-127.26777425 113.26965984 -131.8785214 110.61170443 -136.48876953 107.95288086 C-138.66664882 106.69687102 -140.84469506 105.44115061 -143.02294922 104.18579102 C-150.02831943 100.14605385 -157.01842828 96.08072324 -164 92 C-161.50615208 89.20436225 -158.74784919 87.56746596 -155.49609375 85.734375 C-154.37638184 85.09943115 -153.25666992 84.4644873 -152.10302734 83.81030273 C-151.5065741 83.47505585 -150.91012085 83.13980896 -150.29559326 82.79440308 C-147.76158447 81.37007921 -145.23366239 79.93510114 -142.7052002 78.5009613 C-141.39750414 77.75946655 -140.08947639 77.01855649 -138.78112793 76.2782135 C-132.45870435 72.69987146 -126.16425348 69.07379869 -119.875 65.4375 C-117.72656553 64.19660933 -115.57812803 62.95572392 -113.4296875 61.71484375 C-112.36975586 61.10237793 -111.30982422 60.48991211 -110.21777344 59.85888672 C-104.81329355 56.73675395 -99.40652588 53.61858796 -94 50.5 C-91.8333225 49.25001878 -89.66665583 48.00001879 -87.5 46.75 C-74.5 39.25 -74.5 39.25 -71.24951172 37.37475586 C-69.08442929 36.12564482 -66.91939018 34.87645871 -64.75439453 33.62719727 C-59.31384294 30.48797691 -53.87252784 27.35009437 -48.4296875 24.21484375 C-47.34518311 23.58964844 -46.26067871 22.96445312 -45.14331055 22.3203125 C-42.98172536 21.07506375 -40.81914256 19.83154496 -38.65551758 18.58984375 C-33.13856516 15.41737556 -27.65388376 12.20172871 -22.20703125 8.91015625 C-21.11213379 8.254104 -20.01723633 7.59805176 -18.88916016 6.92211914 C-16.80206611 5.66913062 -14.72189726 4.40451135 -12.64990234 3.12670898 C-11.71742676 2.56927002 -10.78495117 2.01183105 -9.82421875 1.4375 C-9.01041748 0.94121094 -8.19661621 0.44492187 -7.3581543 -0.06640625 C-4.3738766 -1.24788238 -3.03000364 -0.99575661 0 0 Z " fill="#F8F6CF" transform="translate(1004,577)"/>
<path d="M0 0 C0 60.06 0 120.12 0 182 C-7.59 186.29 -15.18 190.58 -23 195 C-26.90356765 197.25971373 -30.80144805 199.52361837 -34.6875 201.8125 C-43.42506951 206.93412258 -52.20016333 211.98647712 -61 217 C-70.72134099 222.53968899 -80.40895092 228.13375063 -90.06689453 233.78344727 C-99.47780276 239.28677934 -108.9195024 244.73588272 -118.3671875 250.17578125 C-122.34682085 252.46771358 -126.32279314 254.76570706 -130.29348755 257.07307434 C-132.05727036 258.09789083 -133.82174894 259.12149926 -135.58642578 260.14477539 C-137.79188817 261.42417071 -139.99608202 262.70575641 -142.19873047 263.98999023 C-143.20564941 264.57337158 -144.21256836 265.15675293 -145.25 265.7578125 C-146.55710937 266.51795654 -146.55710937 266.51795654 -147.890625 267.29345703 C-150.63238972 268.79824153 -153.39530635 270.2126721 -156.19433594 271.60665894 C-157.09440369 272.05532255 -157.99447144 272.50398617 -158.92181396 272.96624565 C-159.60761536 273.30738459 -160.29341675 273.64852352 -161 274 C-161.30378582 250.53912167 -161.53297543 227.07853834 -161.67355824 203.61608887 C-161.74057133 192.72174303 -161.83191564 181.82861968 -161.98071289 170.93505859 C-162.11035598 161.43925506 -162.19417162 151.94433677 -162.22315043 142.44767284 C-162.24008968 137.41943446 -162.27983733 132.39372835 -162.37449074 127.36630249 C-162.46291776 122.6311026 -162.48992007 117.89946985 -162.47039986 113.16352272 C-162.47396882 111.42834873 -162.49973662 109.69305237 -162.54967117 107.95859337 C-162.69377198 102.69388633 -162.63608694 98.0394957 -161 93 C-157.06684453 89.12463518 -153.06361772 87.21923808 -148 85 C-145.78232273 83.78875635 -143.62246934 82.50210721 -141.44921875 81.2109375 C-139.19637346 79.93042328 -136.94243321 78.65183389 -134.6875 77.375 C-132.21390363 75.9690968 -129.74154681 74.56102435 -127.26953125 73.15234375 C-126.65392334 72.80166336 -126.03831543 72.45098297 -125.40405273 72.0896759 C-119.53835699 68.74437809 -113.70300524 65.34800562 -107.875 61.9375 C-96.3713931 55.20771319 -84.83076481 48.54344175 -73.28222656 41.89111328 C-66.7764039 38.1426677 -60.27355917 34.38905819 -53.77026367 30.63623047 C-48.24262719 27.44671205 -42.71400619 24.25892179 -37.18359375 21.07421875 C-34.9348339 19.77875334 -32.6861351 18.48318194 -30.4375 17.1875 C-29.35992432 16.56673584 -28.28234863 15.94597168 -27.17211914 15.30639648 C-20.0226542 11.18223426 -12.8957708 7.02177067 -5.80834961 2.79174805 C-1.10604605 0 -1.10604605 0 0 0 Z " fill="#EA5F2A" transform="translate(1001,394)"/>
<path d="M0 0 C6.27 0 12.54 0 19 0 C19 16.83 19 33.66 19 51 C25.93 51 32.86 51 40 51 C40 34.17 40 17.34 40 0 C46.6 0 53.2 0 60 0 C60 40.92 60 81.84 60 124 C53.4 124 46.8 124 40 124 C40 105.52 40 87.04 40 68 C33.07 68 26.14 68 19 68 C19 86.15 19 104.3 19 123 C12.73 123 6.46 123 0 123 C0 82.41 0 41.82 0 0 Z " fill="#F5F3CD" transform="translate(1019,973)"/>
<path d="M0 0 C8.91 0 17.82 0 27 0 C29.91905228 14.18840235 32.46112312 28.38561928 34.75 42.6875 C35.26485385 45.88189165 35.7807414 49.07611542 36.29663086 52.27033997 C36.65208442 54.47207639 37.00706192 56.67388971 37.36157227 58.8757782 C38.6515573 66.87918697 39.96889356 74.87781662 41.296875 82.875 C41.85189303 86.22876276 42.40653305 89.58258782 42.96105957 92.93643188 C43.31846701 95.09243255 43.67741874 97.24817783 44.03796387 99.40365601 C44.54009995 102.40772114 45.03630047 105.41271247 45.53125 108.41796875 C45.68084167 109.30327271 45.83043335 110.18857666 45.98455811 111.10070801 C46.11920471 111.92494263 46.25385132 112.74917725 46.39257812 113.59838867 C46.51056763 114.3077507 46.62855713 115.01711273 46.75012207 115.74797058 C47.05360572 118.48312257 47 121.24806273 47 124 C40.73 124 34.46 124 28 124 C25.75 116.125 25.75 116.125 25.3671875 112.59765625 C25.29097168 111.92484619 25.21475586 111.25203613 25.13623047 110.55883789 C25.05002441 109.73504639 24.96381836 108.91125488 24.875 108.0625 C24.58625 105.401875 24.2975 102.74125 24 100 C13.11 99.505 13.11 99.505 2 99 C1.38404312 105.35654264 1.38404312 105.35654264 0.77368164 111.71362305 C0.65561157 112.91305542 0.65561157 112.91305542 0.53515625 114.13671875 C0.456604 114.94842529 0.37805176 115.76013184 0.29711914 116.59643555 C-0.01025448 119.08295426 -0.50864184 121.5432092 -1 124 C-6.94 124 -12.88 124 -19 124 C-19 118.59028573 -18.8911668 114.36129819 -18.00952148 109.18066406 C-17.79164474 107.88038269 -17.57376801 106.58010132 -17.34928894 105.24041748 C-17.10664058 103.83213895 -16.86390635 102.42387522 -16.62109375 101.015625 C-16.37021511 99.53113072 -16.11996991 98.04652927 -15.87031555 96.56182861 C-15.34035553 93.41681827 -14.80658821 90.27248912 -14.26965332 87.12866211 C-13.01678555 79.7916395 -11.78315043 72.45137245 -10.54758835 65.11141968 C-10.13705619 62.67387858 -9.72575125 60.23646877 -9.31436157 57.79907227 C-7.05129026 44.37780964 -4.87006899 30.94465298 -2.75 17.5 C-2.60384247 16.57449341 -2.45768494 15.64898682 -2.30709839 14.69543457 C-1.53409674 9.79756338 -0.76613651 4.89895738 0 0 Z " fill="#F3F1CC" transform="translate(735,973)"/>
<path d="M0 0 C5.34412464 4.82695129 8.42302887 11.33656877 8.80078125 18.53125 C8.88823258 22.4452877 8.62531217 26.25438146 8.421875 30.1875 C2.481875 30.1875 -3.458125 30.1875 -9.578125 30.1875 C-9.660625 28.310625 -9.743125 26.43375 -9.828125 24.5 C-10.16048582 20.79592616 -10.50945741 18.33627978 -12.078125 14.9375 C-15.29752353 12.68392103 -17.57152638 12.4582543 -21.44921875 12.7265625 C-23.78378972 13.09219953 -23.78378972 13.09219953 -26.140625 14.9375 C-28.61404875 20.52958848 -28.56395183 26.4988102 -26.98828125 32.39453125 C-23.60109304 40.05862992 -16.86576614 46.34300503 -10.578125 51.6875 C-1.59896303 59.36092726 7.37514374 69.08508908 9.421875 81.1875 C10.08360842 92.71693228 10.07648725 103.7832621 2.421875 113.1875 C-4.56099945 119.86002448 -10.65977889 121.7067429 -20.015625 121.625 C-20.82322266 121.64498047 -21.63082031 121.66496094 -22.46289062 121.68554688 C-29.77025489 121.67965859 -34.94075424 119.53182957 -40.390625 114.6875 C-48.8417546 105.02906617 -48.91696278 95.61155192 -48.578125 83.1875 C-42.308125 83.1875 -36.038125 83.1875 -29.578125 83.1875 C-29.390625 90.375 -29.390625 90.375 -29.37036133 92.61010742 C-29.19307329 96.3717633 -28.60200297 98.15599262 -26.31640625 101.171875 C-23.81598489 103.32597357 -23.81598489 103.32597357 -21.2265625 103.59765625 C-20.47632813 103.48292969 -19.72609375 103.36820313 -18.953125 103.25 C-18.19773437 103.15847656 -17.44234375 103.06695313 -16.6640625 102.97265625 C-13.81512669 101.90030401 -13.004674 100.87718526 -11.578125 98.1875 C-10.98767968 94.79983314 -10.98767968 94.79983314 -11.015625 91.0625 C-10.97308594 89.82242187 -10.93054687 88.58234375 -10.88671875 87.3046875 C-11.90737099 76.64918252 -21.29943142 69.06208898 -28.578125 62.1875 C-38.59475467 52.72698196 -47.07720124 43.85303274 -47.94921875 29.48046875 C-48.20735532 18.76676011 -48.09564286 10.57362932 -40.81640625 2.1484375 C-29.79376734 -8.71769335 -12.31339196 -8.65668768 0 0 Z " fill="#F4F2CD" transform="translate(1330.578125,976.8125)"/>
<path d="M0 0 C0.80759766 -0.01160156 1.61519531 -0.02320313 2.44726562 -0.03515625 C8.90115411 -0.00395292 14.37649585 1.16313381 19.734375 4.8828125 C26.6409074 11.96029867 28.91218994 18.14814523 28.8125 27.9375 C28.73 30.391875 28.6475 32.84625 28.5625 35.375 C22.6225 35.375 16.6825 35.375 10.5625 35.375 C10.39973958 32.38020833 10.23697917 29.38541667 10.07421875 26.390625 C9.52337183 23.1444126 8.85265812 21.70323676 6.5625 19.375 C2.93921381 18.16723794 0.36638473 17.97459108 -3.4375 18.375 C-6.36010173 20.54821667 -7.26436878 22.24875461 -7.81640625 25.83984375 C-8.22501156 35.23776595 -5.41026931 41.37065967 0.6875 48.375 C4.64708467 52.58205871 8.88442797 56.40379205 13.20703125 60.23046875 C22.28123526 68.49205747 28.82100154 78.46738858 29.86328125 90.98828125 C29.90004366 102.59294869 28.78497622 111.71131774 20.5625 120.375 C12.35320152 127.01230516 2.64966006 127.24452349 -7.43457031 126.60888672 C-13.95065547 125.84798843 -18.7419283 122.63314162 -22.875 117.6875 C-28.9595873 108.41410633 -28.73044454 99.11629995 -28.4375 88.375 C-22.4975 88.375 -16.5575 88.375 -10.4375 88.375 C-10.334375 90.23125 -10.23125 92.0875 -10.125 94 C-9.72708245 98.75259271 -9.18812208 102.35486003 -6.4375 106.375 C-3.22371027 108.51752648 -2.58576819 108.64692458 1.0625 108.3125 C1.8359375 108.25964844 2.609375 108.20679688 3.40625 108.15234375 C5.75415719 107.51488038 5.75415719 107.51488038 7.30859375 105.234375 C9.9656937 99.1751938 9.74551509 91.93442259 7.671875 85.6953125 C3.6509553 78.3074781 -2.88423078 72.57800516 -8.91650391 66.83105469 C-11.12682921 64.71510282 -13.28485501 62.54942555 -15.4375 60.375 C-16.0459375 59.76398438 -16.654375 59.15296875 -17.28125 58.5234375 C-25.96412139 49.226212 -29.05569838 38.85014811 -28.77734375 26.34375 C-28.04201823 17.75650023 -24.65023223 10.7533344 -18.4765625 4.77734375 C-12.39735063 0.59642984 -7.20391743 -0.10299485 0 0 Z " fill="#F5F3CD" transform="translate(978.4375,971.625)"/>
<path d="M0 0 C7.26785027 4.12015455 11.17811423 9.14924267 13.81640625 17.046875 C14.77625731 22.32139634 14.26806168 27.93215074 14.21875 33.2578125 C8.27875 33.2578125 2.33875 33.2578125 -3.78125 33.2578125 C-3.9359375 30.69 -3.9359375 30.69 -4.09375 28.0703125 C-4.48618648 23.77562029 -4.86675855 20.62068725 -7.78125 17.2578125 C-11.37389452 16.06026433 -14.00842474 15.92686292 -17.78125 16.2578125 C-20.59217451 18.47696343 -22.55018087 20.46607972 -23.01953125 24.10546875 C-23.3143755 32.90424195 -20.39246367 38.68908641 -14.65625 45.2578125 C-11.51496073 48.5999383 -8.23369916 51.67845272 -4.78125 54.6953125 C5.28318351 63.61712759 13.73896591 73.46456364 14.65625 87.3359375 C14.98008422 96.35920936 15.22767358 105.39133908 10.21875 113.2578125 C9.85652344 113.84433594 9.49429688 114.43085937 9.12109375 115.03515625 C5.43415457 120.14687871 0.00445772 122.32924326 -5.78125 124.2578125 C-16.24460519 124.93899144 -26.11639156 125.39853665 -34.796875 118.703125 C-41.25624097 112.37946 -43.43175635 103.49448791 -44.01953125 94.6875 C-44.02949934 91.87649949 -43.91820998 89.06549219 -43.78125 86.2578125 C-37.51125 86.2578125 -31.24125 86.2578125 -24.78125 86.2578125 C-24.5859375 89.7734375 -24.390625 93.2890625 -24.1953125 96.8046875 C-23.82575539 99.88665436 -23.46444858 101.70229933 -21.78125 104.2578125 C-18.55330762 106.56348563 -15.66558181 106.58150682 -11.78125 106.2578125 C-9.19697593 105.39638781 -8.12949855 104.82152419 -6.6953125 102.5 C-4.36277144 96.77829673 -5.2132435 89.99518076 -7.15625 84.2578125 C-11.07179711 75.52419856 -18.67679036 69.08049434 -25.83984375 62.98828125 C-35.5916911 54.29599076 -42.07246211 43.97365884 -43.03515625 30.77734375 C-43.33147858 21.24723538 -42.26779442 13.62127244 -36.46875 5.8828125 C-26.68869172 -3.66980256 -12.34507489 -5.73164191 0 0 Z " fill="#F5F3CD" transform="translate(830.78125,973.7421875)"/>
<path d="M0 0 C17.49 0 34.98 0 53 0 C53 5.94 53 11.88 53 18 C42.11 18 31.22 18 20 18 C20 28.56 20 39.12 20 50 C28.58 50 37.16 50 46 50 C46 55.94 46 61.88 46 68 C37.42 68 28.84 68 20 68 C20 80.54 20 93.08 20 106 C30.89 106 41.78 106 53 106 C53 111.94 53 117.88 53 124 C35.51 124 18.02 124 0 124 C0 83.08 0 42.16 0 0 Z " fill="#F3F1CC" transform="translate(1157,973)"/>
<path d="M0 0 C17.49 0 34.98 0 53 0 C53 5.94 53 11.88 53 18 C42.11 18 31.22 18 20 18 C20 28.56 20 39.12 20 50 C28.58 50 37.16 50 46 50 C46 55.94 46 61.88 46 68 C37.09 68 28.18 68 19 68 C19 80.54 19 93.08 19 106 C30.22 106 41.44 106 53 106 C53 111.94 53 117.88 53 124 C35.51 124 18.02 124 0 124 C0 83.08 0 42.16 0 0 Z " fill="#F5F3CD" transform="translate(1093,973)"/>
<path d="M0 0 C17.49 0 34.98 0 53 0 C53 5.94 53 11.88 53 18 C41.78 18 30.56 18 19 18 C19 28.56 19 39.12 19 50 C27.91 50 36.82 50 46 50 C46 55.94 46 61.88 46 68 C37.09 68 28.18 68 19 68 C19 80.54 19 93.08 19 106 C29.89 106 40.78 106 52 106 C52 111.61 52 117.22 52 123 C34.84 123 17.68 123 0 123 C0 82.41 0 41.82 0 0 Z " fill="#F6F4CE" transform="translate(657,973)"/>
<path d="M0 0 C6.93 0 13.86 0 21 0 C21.45890625 1.66546875 21.9178125 3.3309375 22.390625 5.046875 C23.0102541 7.28129509 23.63005498 9.51566754 24.25 11.75 C24.55035156 12.84183594 24.85070312 13.93367187 25.16015625 15.05859375 C26.972444 21.57511778 28.94874851 27.99230703 31.18359375 34.37695312 C32.28994483 37.93156916 32.71503051 41.29539666 33 45 C33.66 45 34.32 45 35 45 C35.13148438 43.9790625 35.26296875 42.958125 35.3984375 41.90625 C37.59057131 27.67161484 42.76294566 13.72281924 47 0 C53.27 0 59.54 0 66 0 C64.00737502 7.7753705 61.51352224 15.10928422 58.5859375 22.57421875 C45.39780007 57.45039254 41.14208535 86.47185447 43 124 C36.4 124 29.8 124 23 124 C23.18304687 120.72320313 23.36609375 117.44640625 23.5546875 114.0703125 C25.06367414 73.93931994 15.19623696 41.38553476 0.82847595 4.36929321 C0 2 0 2 0 0 Z " fill="#F4F2CD" transform="translate(850,973)"/>
<path d="M0 0 C19.8 0 39.6 0 60 0 C60 5.94 60 11.88 60 18 C53.4 18 46.8 18 40 18 C40 52.98 40 87.96 40 124 C33.4 124 26.8 124 20 124 C20 89.02 20 54.04 20 18 C13.4 18 6.8 18 0 18 C0 12.06 0 6.12 0 0 Z " fill="#F2F0CC" transform="translate(1216,973)"/>
<path d="M0 0 C3.47142807 1.2214284 5.35278148 2.18334091 7.63476562 5.06274414 C9.48546526 9.04446219 9.46766828 12.46677262 9.46875 16.80859375 C9.48017029 18.07510521 9.48017029 18.07510521 9.49182129 19.36720276 C9.50259866 21.14817354 9.50548501 22.9292074 9.50097656 24.71020508 C9.50000422 27.42572028 9.54164938 30.13840802 9.5859375 32.85351562 C9.59114509 34.58853581 9.59383268 36.32356576 9.59375 38.05859375 C9.6183429 39.26823036 9.6183429 39.26823036 9.64343262 40.50230408 C9.57205313 46.36442175 8.19275322 48.89333946 4 53 C0.52044301 55.55167513 -2.7830749 55.42883984 -7 55 C-10.45020284 53.71312999 -13.31506676 52.21601906 -15.17822266 48.90820312 C-16.29454552 44.95762738 -16.32472769 41.24392544 -16.3359375 37.15625 C-16.3425943 36.30953735 -16.3492511 35.46282471 -16.35610962 34.5904541 C-16.36620732 32.80527918 -16.37092753 31.02006673 -16.37060547 29.23486328 C-16.37498585 26.50880805 -16.41135401 23.78436363 -16.44921875 21.05859375 C-16.45508616 19.32031801 -16.45905606 17.58203462 -16.4609375 15.84375 C-16.47530853 15.03216431 -16.48967957 14.22057861 -16.50448608 13.38439941 C-16.47284663 9.4544792 -16.29893079 7.47530868 -14.15869141 4.07226562 C-9.52010779 -0.38060677 -6.15212212 -0.67305268 0 0 Z " fill="#F4F2CD" transform="translate(1041,1183)"/>
<path d="M0 0 C3.96 0 7.92 0 12 0 C14.1408521 8.86476001 15.92121263 17.72835144 17.36254883 26.73095703 C17.68967538 28.76351645 18.02910967 30.79378303 18.36914062 32.82421875 C19.48018055 39.61001821 20.28051088 46.11611126 20 53 C17.36 53 14.72 53 12 53 C11.505 48.05 11.505 48.05 11 43 C7.7 43 4.4 43 1 43 C1.020625 44.093125 1.04125 45.18625 1.0625 46.3125 C1 50 1 50 0 53 C-2.64 53 -5.28 53 -8 53 C-6.6995491 40.89960481 -4.92790865 28.93151504 -2.875 16.9375 C-2.59466491 15.28066442 -2.31471535 13.62376356 -2.03515625 11.96679688 C-1.36118679 7.97710245 -0.68209737 3.98831252 0 0 Z " fill="#ECEAC8" transform="translate(858,1184)"/>
<path d="M0 0 C2.64 0 5.28 0 8 0 C8.01030746 0.54901474 8.02061493 1.09802948 8.03123474 1.66368103 C8.13907947 7.35721281 8.25369449 13.05057921 8.37231445 18.74389648 C8.41573423 20.87114007 8.45740393 22.9984201 8.49731445 25.12573242 C8.55484707 28.17638151 8.61858967 31.22684589 8.68359375 34.27734375 C8.70030624 35.23462875 8.71701874 36.19191376 8.73423767 37.1782074 C8.75418289 38.05904495 8.77412811 38.93988251 8.79467773 39.84741211 C8.81022202 40.62684677 8.8257663 41.40628143 8.84178162 42.20933533 C8.80889119 44.02293353 8.80889119 44.02293353 10 45 C11.66617115 45.04063832 13.33388095 45.042721 15 45 C16.1415622 42.7168756 16.15334372 41.36520695 16.20532227 38.82568359 C16.22526749 37.96494232 16.24521271 37.10420105 16.26576233 36.21737671 C16.28247482 35.28712677 16.29918732 34.35687683 16.31640625 33.3984375 C16.33718735 32.44683746 16.35796844 31.49523743 16.37937927 30.51480103 C16.44488133 27.46827568 16.5037628 24.42166257 16.5625 21.375 C16.60568459 19.31249084 16.64929886 17.24999063 16.69335938 15.1875 C16.8005634 10.12509046 16.90182902 5.06259245 17 0 C19.64 0 22.28 0 25 0 C25.07431567 6.15638608 25.12868084 12.31250935 25.16479492 18.46923828 C25.17985469 20.56238353 25.20030671 22.65549736 25.22631836 24.74853516 C25.26282501 27.76212328 25.27975473 30.77529312 25.29296875 33.7890625 C25.30845261 34.72054108 25.32393646 35.65201965 25.33988953 36.61172485 C25.34123408 41.8361755 24.96400251 45.50038774 22 50 C18.79863628 52.76481412 16.7562704 53.88999703 12.5625 54.5 C8.01596688 53.86189009 5.75197431 52.64845246 2 50 C0.11093962 47.0535698 -0.24609735 44.789717 -0.22705078 41.32324219 C-0.22689972 40.40258972 -0.22674866 39.48193726 -0.22659302 38.53338623 C-0.21627045 37.54783752 -0.20594788 36.56228882 -0.1953125 35.546875 C-0.1924826 34.53151672 -0.18965271 33.51615845 -0.18673706 32.47003174 C-0.17555001 29.22990084 -0.15044791 25.99004724 -0.125 22.75 C-0.1149683 20.55208733 -0.10584278 18.35417032 -0.09765625 16.15625 C-0.07561551 10.77073886 -0.04215251 5.38538924 0 0 Z " fill="#F3F1CC" transform="translate(1086,1184)"/>
<path d="M0 0 C3.09752674 2.08902966 4.30015239 3.34413098 5.6875 6.8125 C5.9151512 9.53419654 5.82686164 12.07172103 5.6875 14.8125 C3.0475 14.8125 0.4075 14.8125 -2.3125 14.8125 C-2.6425 12.1725 -2.9725 9.5325 -3.3125 6.8125 C-5.2925 7.1425 -7.2725 7.4725 -9.3125 7.8125 C-9.83878917 10.97023504 -10.04422518 12.74716478 -9.3125 15.8125 C-6.66656213 19.49872114 -3.51243765 22.60720232 -0.3125 25.8125 C5.16372509 32.01633541 6.18252031 35.56650377 5.6875 43.8125 C4.60284858 48.34831501 2.46469266 50.16846514 -1.3125 52.8125 C-4.37679776 54.34464888 -6.9290642 54.04188548 -10.3125 53.8125 C-14.00023373 52.13625739 -16.17033496 50.23996406 -18.3125 46.8125 C-19.4702506 43.33924819 -19.38116652 40.45182552 -19.3125 36.8125 C-16.6725 36.8125 -14.0325 36.8125 -11.3125 36.8125 C-11.168125 37.946875 -11.02375 39.08125 -10.875 40.25 C-10.70078522 43.62027201 -10.70078522 43.62027201 -9.3125 44.8125 C-7.64632885 44.85313832 -5.97861905 44.855221 -4.3125 44.8125 C-2.80360531 41.79471063 -2.81223724 40.18927363 -3.3125 36.8125 C-5.35762381 33.87528954 -7.82486079 31.37727531 -10.3125 28.8125 C-15.6030155 23.18339151 -18.91541532 19.25984837 -19.625 11.3125 C-19.1834359 6.36698205 -17.92788212 3.19711325 -14.125 -0.0625 C-9.07597362 -2.08211055 -4.98367705 -1.78660121 0 0 Z " fill="#EEECC9" transform="translate(909.3125,1184.1875)"/>
<path d="M0 0 C3.15221029 1.57295923 5.35729836 3.62278221 6.875 6.875 C7.05423931 9.92206822 7.05867367 12.94896941 7 16 C4.36 16 1.72 16 -1 16 C-1.33 13.69 -1.66 11.38 -2 9 C-3.98 9 -5.96 9 -8 9 C-8.4596998 14.74624746 -7.67500704 17.55130726 -4 22 C-2.50958854 23.20501352 -1.01913626 24.40997787 0.47265625 25.61328125 C4.3540173 29.13727913 6.69298034 32.76976285 7.4140625 38.0078125 C7.56607088 43.63212271 7.39667165 47.34170745 4 52 C-0.37576915 54.88402967 -3.80099864 55.64987517 -9 55 C-13.86953166 52.56523417 -16.18709505 50.13656401 -18 45 C-18.1875 41.125 -18.1875 41.125 -18 38 C-15.36 38 -12.72 38 -10 38 C-9.34 40.64 -8.68 43.28 -8 46 C-6.33388095 46.042721 -4.66617115 46.04063832 -3 46 C-1.65715584 44.86309636 -1.65715584 44.86309636 -1.625 41.875 C-2.09865149 36.98060128 -3.71442794 34.55150609 -7 31 C-8.010625 30.175 -9.02125 29.35 -10.0625 28.5 C-14.43019869 24.78280962 -16.60988945 21.71254441 -17.41796875 16.09375 C-17.64146816 11.2130061 -17.81387969 7.22999612 -14.625 3.3125 C-10.07364139 -0.6970302 -5.91205915 -0.81483204 0 0 Z " fill="#EFEDCA" transform="translate(1142,1183)"/>
<path d="M0 0 C7.59 0 15.18 0 23 0 C23 2.31 23 4.62 23 7 C18.05 7 13.1 7 8 7 C8 11.62 8 16.24 8 21 C11.96 21 15.92 21 20 21 C20 23.64 20 26.28 20 29 C16.37 29 12.74 29 9 29 C9 34.28 9 39.56 9 45 C13.62 45 18.24 45 23 45 C23 47.64 23 50.28 23 53 C15.41 53 7.82 53 0 53 C0 35.51 0 18.02 0 0 Z " fill="#EFEDCA" transform="translate(1163,1184)"/>
<path d="M0 0 C7.26 0 14.52 0 22 0 C22 2.31 22 4.62 22 7 C17.38 7 12.76 7 8 7 C8 11.62 8 16.24 8 21 C11.96 21 15.92 21 20 21 C20 23.64 20 26.28 20 29 C16.04 29 12.08 29 8 29 C8 34.28 8 39.56 8 45 C12.62 45 17.24 45 22 45 C22 47.64 22 50.28 22 53 C14.74 53 7.48 53 0 53 C0 35.51 0 18.02 0 0 Z " fill="#F2F0CC" transform="translate(816,1184)"/>
<path d="M0 0 C2.64 0 5.28 0 8 0 C10.08135307 5.29798964 11.71291613 10.45563871 13 16 C15.1491917 12.77621244 16.024994 10.01585352 17.125 6.3125 C17.47820313 5.13300781 17.83140625 3.95351562 18.1953125 2.73828125 C18.46085938 1.83464844 18.72640625 0.93101563 19 0 C21.64 0 24.28 0 27 0 C26.13652591 4.42346721 25.21401159 8.71218048 23.52734375 12.90234375 C18.27015215 26.07632419 17.97711164 38.93019787 18 53 C15.03 53 12.06 53 9 53 C9.01160156 52.37359619 9.02320313 51.74719238 9.03515625 51.10180664 C9.20314368 34.56554438 6.5465087 20.70489811 0.71850586 5.23876953 C0 3 0 3 0 0 Z " fill="#EEECC9" transform="translate(927,1184)"/>
<path d="M0 0 C8.58 0 17.16 0 26 0 C26 2.64 26 5.28 26 8 C23.03 8 20.06 8 17 8 C17 22.85 17 37.7 17 53 C14.03 53 11.06 53 8 53 C8 38.15 8 23.3 8 8 C5.36 8 2.72 8 0 8 C0 5.36 0 2.72 0 0 Z " fill="#E6E5C5" transform="translate(987,1184)"/>
<path d="M0 0 C0.66 0 1.32 0 2 0 C2.97899328 7.40147759 3.95754343 14.80301366 4.93579102 22.20458984 C5.26837212 24.72055374 5.60105325 27.23650442 5.93383789 29.75244141 C6.41318884 33.37659254 6.89217558 37.00079165 7.37109375 40.625 C7.51904892 41.74302002 7.66700409 42.86104004 7.81944275 44.01293945 C7.95951248 45.07343506 8.09958221 46.13393066 8.24389648 47.2265625 C8.36603012 48.15033691 8.48816376 49.07411133 8.61399841 50.02587891 C9.08855502 53.68231157 9.54267157 57.34137259 10 61 C4.39 61 -1.22 61 -7 61 C-7.12897175 54.68551154 -6.70116957 48.77091659 -5.72265625 42.5390625 C-5.59185165 41.6678476 -5.46104706 40.79663269 -5.32627869 39.89901733 C-4.91122475 37.14002863 -4.48748966 34.38247415 -4.0625 31.625 C-3.50756391 27.99280737 -2.95672888 24.36002304 -2.41015625 20.7265625 C-2.21566391 19.43555634 -2.21566391 19.43555634 -2.01724243 18.11846924 C-1.12466717 12.09473883 -0.40166524 6.07882825 0 0 Z " fill="#0A0C41" transform="translate(747,995)"/>
<path d="M0 0 C2.5 0.25 2.5 0.25 4.5 2.25 C4.69962411 4.7959607 4.77986548 7.23075936 4.765625 9.77734375 C4.76753845 10.52206436 4.7694519 11.26678497 4.77142334 12.03407288 C4.77278514 13.61020241 4.76908903 15.18634315 4.76074219 16.76245117 C4.75005726 19.17457334 4.76062946 21.58594818 4.7734375 23.99804688 C4.77211561 25.52864748 4.7695526 27.05924762 4.765625 28.58984375 C4.76967346 29.31179428 4.77372192 30.03374481 4.77789307 30.77757263 C4.74321486 34.48517669 4.61189101 36.08216348 2.5 39.25 C0 39.5625 0 39.5625 -2.5 39.25 C-5.01704805 36.73295195 -4.74669599 35.17327101 -4.77789307 31.73840332 C-4.7738446 30.98941772 -4.76979614 30.24043213 -4.765625 29.46875 C-4.76753845 28.69946167 -4.7694519 27.93017334 -4.77142334 27.13757324 C-4.77278508 25.5101692 -4.76908939 23.8827543 -4.76074219 22.25537109 C-4.75004221 19.75984369 -4.76063751 17.26503618 -4.7734375 14.76953125 C-4.7721159 13.19010257 -4.7695535 11.61067434 -4.765625 10.03125 C-4.76967346 9.2822644 -4.77372192 8.53327881 -4.77789307 7.76159668 C-4.71167798 0.4711678 -4.71167798 0.4711678 0 0 Z " fill="#0A0C41" transform="translate(1037.5,1190.75)"/>
<path d="M0 0 C0.33 0 0.66 0 1 0 C1 60.06 1 120.12 1 182 C1.99 182.33 2.98 182.66 4 183 C3.34 183.99 2.68 184.98 2 186 C1.34 186 0.68 186 0 186 C0 124.62 0 63.24 0 0 Z " fill="#729842" transform="translate(839,487)"/>
<path d="M0 0 C0.66 0 1.32 0 2 0 C3.29901921 8.04927976 4.33853295 15.83759432 4 24 C2.02 24 0.04 24 -2 24 C-2.28545428 15.86455314 -1.18396883 8.02350304 0 0 Z " fill="#121446" transform="translate(863,1195)"/>
</svg>
